<?xml version="1.0" encoding="UTF-8"?>
<svg width="40px" height="40px" viewBox="0 0 40 40" version="1.1" xmlns="http://www.w3.org/2000/svg" xmlns:xlink="http://www.w3.org/1999/xlink">
    <!-- Generator: Sketch 54.1 (76490) - https://sketchapp.com -->
    <title>Fill 1</title>
    <desc>Created with Sketch.</desc>
    <g id="DEMO" stroke="none" stroke-width="1" fill="none" fill-rule="evenodd">
        <g id="编组" fill="#105CFB">
            <path d="M31.1723177,13.3256898 L28.6287714,13.3256898 C28.2313055,13.3256898 27.9073355,13.6473078 27.9073355,14.0441857 L27.9073355,21.7318575 C27.9073355,27.3722274 23.4058583,32.0930164 17.7249187,32.1865032 C11.9216819,32.2817539 7.18736964,27.6409284 7.18736964,21.9000162 L7.18736964,20.4389176 C7.18736964,20.2725228 7.40609345,20.2037307 7.49781635,20.3436669 C8.01405159,21.148594 9.02535526,21.9000162 11.0997037,21.9000162 L23.1400971,21.9000162 C24.5670936,21.9000162 25.7236252,20.7517161 25.7236252,19.3347151 L25.7236252,9.89784069 C25.7236252,7.06619041 29.7053394,7.20142288 29.6894643,9.80023813 C29.6853485,10.3652747 30.1651298,10.8203613 30.7366339,10.8203613 L31.2105355,10.8203613 C33.2825321,10.8203613 33.4230563,13.3256898 31.1723177,13.3256898 M20.000352,0 C8.95421122,0 5.79710145e-05,8.95415325 5.79710145e-05,20.000294 C5.79710145e-05,31.0458467 8.95421122,40.000588 20.000352,40.000588 C31.0459047,40.000588 40.000058,31.0458467 40.000058,20.000294 C40.000058,8.95415325 31.0459047,0 20.000352,0" id="Fill-1"></path>
        </g>
    </g>
</svg>